<svg height="480pt" viewBox="-72 0 480 480" width="480pt" xmlns="http://www.w3.org/2000/svg"><path d="m304 360v96c-.027344 8.824219-7.175781 15.972656-16 16h-240c-8.824219-.027344-15.972656-7.175781-16-16v-64h248v-32zm0 0" fill="#bddbff"/><path d="m56 152v32h-24v-160c.027344-8.824219 7.175781-15.972656 16-16h56l6.480469 25.921875c.882812 3.566406 4.082031 6.074219 7.757812 6.078125h99.523438c3.675781-.003906 6.875-2.511719 7.757812-6.078125l6.480469-25.921875h56c8.824219.027344 15.972656 7.175781 16 16v128zm0 0" fill="#bddbff"/><path d="m96 232c0 8.835938-7.164062 16-16 16s-16-7.164062-16-16 7.164062-16 16-16 16 7.164062 16 16zm0 0" fill="#bddbff"/><path d="m208 232-96 96 64 64h104v-88zm0 0" fill="#bddbff"/><path d="m144 360-80-80-56 56v56h168zm0 0" fill="#bddbff"/><g fill="#3d9ae2"><path d="m296 456c0 4.417969-3.582031 8-8 8h-240c-4.417969 0-8-3.582031-8-8v-40h-16v40c0 13.253906 10.746094 24 24 24h240c13.253906 0 24-10.746094 24-24v-72h-16zm0 0"/><path d="m40 24c0-4.417969 3.582031-8 8-8h49.761719l4.964843 19.878906c1.78125 7.125 8.179688 12.121094 15.519532 12.121094h99.507812c7.339844 0 13.738282-4.996094 15.519532-12.121094l4.964843-19.878906h49.761719c4.417969 0 8 3.582031 8 8v104h16v-104c0-13.253906-10.746094-24-24-24h-240c-13.253906 0-24 10.746094-24 24v136h16zm177.753906 8h-99.515625l-4-16h107.515625zm0 0"/><path d="m112 64h16v16h-16zm0 0"/><path d="m144 64h16v16h-16zm0 0"/><path d="m176 64h16v16h-16zm0 0"/><path d="m208 64h16v16h-16zm0 0"/><path d="m328 144h-272c-4.417969 0-8 3.582031-8 8v24h-40c-4.417969 0-8 3.582031-8 8v208c0 4.417969 3.582031 8 8 8h272c4.417969 0 8-3.582031 8-8v-24h40c4.417969 0 8-3.582031 8-8v-208c0-4.417969-3.582031-8-8-8zm-56 48v92.6875l-58.34375-58.34375c-3.125-3.121094-8.1875-3.121094-11.3125 0l-90.34375 90.34375-42.34375-42.34375c-3.125-3.121094-8.1875-3.121094-11.3125 0l-42.34375 42.34375v-124.6875zm-256 147.3125 48-48 92.6875 92.6875h-140.6875zm163.3125 44.6875-56-56 84.6875-84.6875 64 64v76.6875zm140.6875-32h-32v-168c0-4.417969-3.582031-8-8-8h-216v-16h256zm0 0"/><path d="m80 256c13.253906 0 24-10.746094 24-24s-10.746094-24-24-24-24 10.746094-24 24 10.746094 24 24 24zm0-32c4.417969 0 8 3.582031 8 8s-3.582031 8-8 8-8-3.582031-8-8 3.582031-8 8-8zm0 0"/></g></svg>