<svg xmlns="http://www.w3.org/2000/svg" height="700pt" version="1.1" viewBox="0 0 700 700" width="700pt">
<g id="surface1">
<path d="M 600 75 L 600 25 C 600 11.191406 588.808594 0 575 0 L 25 0 C 11.191406 0 0 11.191406 0 25 L 0 475 C 0 488.808594 11.191406 500 25 500 L 75 500 L 75 125 C 75 97.386719 97.386719 75 125 75 Z M 125 25 L 150 25 L 150 50 L 125 50 Z M 50 50 L 25 50 L 25 25 L 50 25 Z M 100 50 L 75 50 L 75 25 L 100 25 Z M 100 50 " style=" stroke:none;fill-rule:nonzero;fill:rgb(0%,0%,0%);fill-opacity:1;" />
<path d="M 675 100 L 125 100 C 111.191406 100 100 111.191406 100 125 L 100 575 C 100 588.808594 111.191406 600 125 600 L 675 600 C 688.808594 600 700 588.808594 700 575 L 700 125 C 700 111.191406 688.808594 100 675 100 Z M 225 125 L 250 125 L 250 150 L 225 150 Z M 175 125 L 200 125 L 200 150 L 175 150 Z M 125 125 L 150 125 L 150 150 L 125 150 Z M 287.5 537.5 L 150 537.5 L 150 512.5 L 287.5 512.5 Z M 208.835938 328.664062 L 191.164062 346.335938 L 153.664062 308.835938 C 148.785156 303.953125 148.785156 296.046875 153.664062 291.164062 L 191.164062 253.664062 L 208.835938 271.335938 L 180.175781 300 Z M 225 387.5 L 225 412.5 L 150 412.5 L 150 387.5 Z M 412.5 450 L 412.5 475 L 150 475 L 150 450 Z M 291.164062 271.335938 L 308.835938 253.664062 L 346.335938 291.164062 C 351.214844 296.046875 351.214844 303.953125 346.335938 308.835938 L 308.835938 346.335938 L 291.164062 328.664062 L 319.824219 300 Z M 450 387.5 L 450 412.5 L 262.5 412.5 L 262.5 387.5 Z M 500 325 L 500 350 L 375 350 L 375 325 Z M 375 287.5 L 375 262.5 L 462.5 262.5 L 462.5 287.5 Z M 249.628906 353.039062 L 225.371094 346.960938 L 250.371094 246.960938 L 274.628906 253.039062 Z M 425 537.5 L 312.5 537.5 L 312.5 512.5 L 425 512.5 Z M 437.5 450 L 537.5 450 L 537.5 475 L 437.5 475 Z M 650 537.5 L 450 537.5 L 450 512.5 L 650 512.5 Z M 650 475 L 562.5 475 L 562.5 450 L 650 450 Z M 650 412.5 L 475 412.5 L 475 387.5 L 650 387.5 Z M 650 350 L 525 350 L 525 325 L 650 325 Z M 650 287.5 L 487.5 287.5 L 487.5 262.5 L 650 262.5 Z M 675 200 L 125 200 L 125 175 L 675 175 Z M 675 200 " style=" stroke:none;fill-rule:nonzero;fill:rgb(0%,0%,0%);fill-opacity:1;" />
<path d="M 500 700 L 267.675781 700 L 255.175781 687.5 L 267.675781 675 L 500 675 Z M 537.5 700 L 525 700 L 525 675 L 537.5 675 C 544.40625 675 550 680.59375 550 687.5 C 550 694.40625 544.40625 700 537.5 700 Z M 537.5 700 " style=" stroke:none;fill-rule:nonzero;fill:rgb(0%,0%,0%);fill-opacity:1;" />
</g>
</svg>