<?xml version="1.0" encoding="UTF-8" standalone="no"?>
<svg
   xmlns:dc="http://purl.org/dc/elements/1.1/"
   xmlns:cc="http://creativecommons.org/ns#"
   xmlns:rdf="http://www.w3.org/1999/02/22-rdf-syntax-ns#"
   xmlns:svg="http://www.w3.org/2000/svg"
   xmlns="http://www.w3.org/2000/svg"
   id="svg22"
   version="1.1"
   viewBox="0 0 124.51328 124.51327"
   enable-background="new 0 0 128 128"
   width="23.346239pt"
   height="23.346239pt">
  <metadata
     id="metadata28">
    <rdf:RDF>
      <cc:Work
         rdf:about="">
        <dc:format>image/svg+xml</dc:format>
        <dc:type
           rdf:resource="http://purl.org/dc/dcmitype/StillImage" />
        <dc:title></dc:title>
      </cc:Work>
    </rdf:RDF>
  </metadata>
  <defs
     id="defs26" />
  <path
     style="fill:#000000"
     id="path20"
     d="m 34.713289,52.659641 c -1.1,0 -2.2,-0.6 -2.7,-1.6 l -0.8,-1.6 -0.3,1.8 -0.1,0.8 c 0,3.3 2.6,5.9 5.9,5.9 3.3,0 5.9,-2.6 5.9,-5.9 0,-3.1 -2.5,-5.7 -5.6,-5.9 l -1.7,-0.1 1.4,1.1 c 0.7,0.6 1.2,1.5 1.2,2.4 -0.1,1.7 -1.5,3.1 -3.2,3.1 z m -0.5,-13.4 c 5,0 9.3,3.4 10.6,7.9 0.8,-2.2 2.1,-4.1 3.8,-5.6 -16.3,-1 -23.3,-15.5 -23.3,-15.5 l -0.4,18.3 c 1.9,-3 5.3,-5.1 9.3,-5.1 z m 25.8,21 c 3.7,0 6.7,-3 6.7,-6.7 0,-3.6 -2.8,-6.6 -6.4,-6.7 l -1.5,-0.1 1.2,0.9 c 0.9,0.7 1.4,1.8 1.4,3 0,2.1 -1.7,3.8 -3.8,3.8 -1.4,0 -2.7,-0.8 -3.4,-2 l -0.7,-1.3 -0.2,1.5 -0.1,0.9 c 0.1,3.6 3.1,6.7 6.8,6.7 z m 64.300001,47.199999 c -0.4,-1.4 -0.8,-2.8 -1.2,-4.1 -2.5,-9.000001 -4.4,-16.000001 -12.3,-15.300001 -1.2,0.1 -2.2,0.5 -3.1,1.1 l -7.900001,-5 h -0.3 l -0.6,-1.899998 -1.2,0.8 c -2.5,-1.6 -5.3,-3 -8.1,-4.3 9,-10.7 13.900001,-29.6 10.500001,-60.500001 -0.300001,-2.7 -1.800001,-3.1 -2.800001,-0.2 -0.8,2.5 -6.1,18.300001 -33.4,22.700001 3.6,2.3 6,6.3 6,10.9 0,7.2 -5.8,13 -13,13 -6.1,0 -11.3,-4.3 -12.6,-10 -1.7,4 -5.6,6.8 -10.2,6.8 -4.6,0 -8.5,-2.8 -10.2,-6.8 -0.1,0.2 -0.2,0.4 -0.3,0.5 -0.1,-0.2 -0.3,-0.4 -0.4,-0.7 -5.4,-7.4 -14.0000005,-10.4 -19.3000005,-6.6 -5.3,3.9 -5.2,13 0.2,20.4 4.5,6.2 11.2000005,9.3 16.4000005,7.9 15.1,11.199998 43,20.899998 61.7,8.999998 3.7,2.1 7.9,4.1 11.8,5.5 v 0.1 l 0.4,1.2 1.6,-0.6 0.2,0.2 8.800001,3.2 c 0.1,2.8 1.8,5.900001 5.4,7.300001 6.7,2.6 13.1,5.8 13.1,5.9 l 1,0.5 z M 3.3132885,55.359641 c 0,-3.2 2.2,-5.8 4.8,-5.8 2.7000005,0 4.8000005,2.6 4.8000005,5.8 0,3.2 -2.2,5.8 -4.8000005,5.8 -2.7,0 -4.8,-2.6 -4.8,-5.8 z m 36.6000005,18.6 c 18.3,3.7 27.7,0.3 33.1,-4 -1.4,-1.9 -3.9,-3.9 -3.9,-3.9 0,0 6.4,1.8 8.7,4.7 1,1.3 1.3,2.4 1.2,3.5 -3.2,-1.1 -5.6,-1.8 -6.1,-2 -2,-0.9 -3.9,-0.3 -4.4,1.2 -0.4,1.1 -0.1,2.4 0.9,3.4 -6.3,2.9 -16.6,1.7 -29.5,-2.9 z" />
</svg>
