<?xml version="1.0" encoding="UTF-8" standalone="no"?>
<svg
   xmlns:dc="http://purl.org/dc/elements/1.1/"
   xmlns:cc="http://creativecommons.org/ns#"
   xmlns:rdf="http://www.w3.org/1999/02/22-rdf-syntax-ns#"
   xmlns:svg="http://www.w3.org/2000/svg"
   xmlns="http://www.w3.org/2000/svg"
   id="svg881"
   version="1.1"
   viewBox="0 0 1493 391"
   aria-label="Logo"
   stroke-width="27"
   fill-rule="evenodd">
  <metadata
     id="metadata887">
    <rdf:RDF>
      <cc:Work
         rdf:about="">
        <dc:format>image/svg+xml</dc:format>
        <dc:type
           rdf:resource="http://purl.org/dc/dcmitype/StillImage" />
        <dc:title></dc:title>
      </cc:Work>
    </rdf:RDF>
  </metadata>
  <defs
     id="defs885" />
  <path
     d="m 550.60938,1.2519531 c -18.86238,0.3096648 -32.05665,9.0175779 -32.05665,9.0175779 0,0 -75.96173,46.737013 -105.08203,64.591797 -29.1203,17.854783 -31.24609,53.351562 -31.24609,53.351562 0,0 0.21223,93.95107 -0.21289,133.69922 -0.42511,39.74815 32.73437,57.17773 32.73437,57.17773 0,0 79.70878,46.55009 108.19141,62.2793 28.48264,15.72922 56.96484,0 56.96484,0 0,0 91.18792,-51.2262 118.82032,-67.16797 C 726.35506,298.2594 726.7793,264.25 726.7793,264.25 c 0,0 0.21255,-111.16843 0,-140.07617 -0.21256,-28.907747 -25.93164,-45.912111 -25.93164,-45.912111 0,0 -82.36494,-48.038368 -117.01172,-68.125 -11.90983,-6.90478 -23.34627,-9.0469712 -33.22656,-8.8847659 z m 383.5664,1.203125 c -18.86238,0.3096648 -32.05469,9.0175779 -32.05469,9.0175779 0,0 -75.96368,46.737013 -105.08398,64.591797 -29.1203,17.854783 -31.24609,53.351567 -31.24609,53.351567 0,0 0.21222,93.94911 -0.2129,133.69726 -0.4251,39.74815 32.73438,57.17774 32.73438,57.17774 0,0 79.70878,46.55008 108.19141,62.27929 28.48264,15.72922 56.96484,0 56.96484,0 0,0 91.18795,-51.2262 118.82035,-67.16797 27.6324,-15.94177 28.0566,-49.95117 28.0566,-49.95117 0,0 0.2126,-111.16648 0,-140.07422 -0.2125,-28.907738 -25.9316,-45.912106 -25.9316,-45.912106 0,0 -82.3649,-48.038368 -117.01176,-68.125 C 955.49251,4.4350639 944.05607,2.2928728 934.17578,2.4550781 Z m 383.56642,0 c -18.8624,0.3096648 -32.0547,9.0175779 -32.0547,9.0175779 0,0 -75.9637,46.737013 -105.084,64.591797 -29.1203,17.854783 -31.2461,53.351567 -31.2461,53.351567 0,0 0.2143,93.94911 -0.2109,133.69726 -0.4251,39.74815 32.7324,57.17774 32.7324,57.17774 0,0 79.7088,46.55008 108.1914,62.27929 28.4826,15.72922 56.9668,0 56.9668,0 0,0 91.186,-51.2262 118.8184,-67.16797 27.6324,-15.94177 28.0586,-49.95117 28.0586,-49.95117 0,0 0.2126,-111.16648 0,-140.07422 -0.2125,-28.907738 -25.9336,-45.912106 -25.9336,-45.912106 0,0 -82.365,-48.038368 -117.0117,-68.125 -11.9099,-6.9047801 -23.3463,-9.0469712 -33.2266,-8.8847659 z M 169.44727,3.6582031 c -18.86238,0.3096648 -32.05665,9.0175779 -32.05665,9.0175779 0,0 -75.961724,46.73506 -105.082026,64.589844 C 3.1882919,95.120408 1.0625,130.61719 1.0625,130.61719 c 0,0 0.2122233,93.95107 -0.21289062,133.69922 -0.42511389,39.74815 32.73437462,57.17773 32.73437462,57.17773 0,0 79.708776,46.55009 108.191406,62.2793 28.48264,15.72922 56.96484,0 56.96484,0 0,0 91.18792,-51.2262 118.82032,-67.16797 27.6324,-15.94177 28.05664,-49.95117 28.05664,-49.95117 0,0 0.21255,-111.16648 0,-140.07422 -0.21256,-28.90775 -25.93164,-45.914064 -25.93164,-45.914064 0,0 -82.36494,-48.036415 -117.01172,-68.123047 C 190.764,5.6381891 179.32756,3.4959978 169.44727,3.6582031 Z M 1320.72,89.15 c 58.79,0 106.52,47.73 106.52,106.51 0,58.8 -47.73,106.52 -106.52,106.52 -58.78,0 -106.52,-47.73 -106.52,-106.52 0,-58.78 47.74,-106.51 106.52,-106.51 z m 0,39.57 c 36.95,0 66.94,30 66.94,66.94 a 66.97,66.97 0 0 1 -66.94,66.94 c -36.95,0 -66.94,-29.99 -66.94,-66.94 a 66.97,66.97 0 0 1 66.93,-66.94 z m -283.8,65.31 c 0,47.18 -8.94,60.93 -26.81,80.58 -17.87,19.65 -41.57,27.57 -71.1,27.57 -27,0 -48.75,-9.58 -67.61,-26.23 -20.88,-18.45 -36.08,-47.04 -36.08,-78.95 0,-31.37 11.72,-58.48 32.49,-78.67 18.22,-17.67 45.34,-29.18 73.3,-29.18 33.77,0 68.83,15.98 90.44,47.53 L 999.82,163.5 C 986.37,138.47 966.88,130.04 939,129.24 c -30.83,-0.88 -64.77,28.53 -62.25,67.75 1.4,21.94 11.65,59.65 60.96,66.57 25.9,3.63 55.36,-24.02 55.36,-39.04 H 944.4 v -37.5 h 92.5 V 194 Z M 474.32,99.38 h 42.29 v 112.17 c 0,17.8 0.49,29.33 1.47,34.61 1.69,8.48 4.81,14.37 11.17,19.5 6.37,5.13 13.8,6.59 24.84,6.59 11.2,0 14.96,-1.74 20.66,-6.6 5.69,-4.85 9.12,-9.46 10.28,-16.53 1.15,-7.07 3.07,-18.8 3.07,-35.18 V 99.38 h 42.28 v 108.78 c 0,24.86 -1.07,42.43 -3.21,52.69 -2.14,10.27 -6.08,18.93 -11.82,26 -5.74,7.06 -13.42,12.69 -23.03,16.88 -9.62,4.19 -22.16,6.28 -37.65,6.28 -18.7,0 -32.87,-2.28 -42.52,-6.85 -9.66,-4.57 -17.3,-10.5 -22.9,-17.8 -5.61,-7.3 -9.3,-14.95 -11.08,-22.96 -2.58,-11.86 -3.88,-29.38 -3.88,-52.55 V 99.38 Z M 93.91,299.92 V 92.7 h 43.35 v 75.48 h 71.92 V 92.7 h 43.48 v 207.22 h -43.48 v -90.61 h -71.92 v 90.61 z"
     id="path891" />
</svg>
