<?xml version="1.0" encoding="UTF-8" standalone="no"?>
<svg
   xmlns:dc="http://purl.org/dc/elements/1.1/"
   xmlns:cc="http://creativecommons.org/ns#"
   xmlns:rdf="http://www.w3.org/1999/02/22-rdf-syntax-ns#"
   xmlns:svg="http://www.w3.org/2000/svg"
   xmlns="http://www.w3.org/2000/svg"
   id="svg24"
   viewBox="0 0 18 18"
   height="18pt"
   width="18pt"
   version="1.1">
  <metadata
     id="metadata30">
    <rdf:RDF>
      <cc:Work
         rdf:about="">
        <dc:format>image/svg+xml</dc:format>
        <dc:type
           rdf:resource="http://purl.org/dc/dcmitype/StillImage" />
        <dc:title></dc:title>
      </cc:Work>
    </rdf:RDF>
  </metadata>
  <defs
     id="defs28" />
  <path
     id="path22"
     d="M 0,0 H 18 V 18 H 0 V 0 m 4.73,15.04 c 0.4,0.85 1.19,1.55 2.54,1.55 1.5,0 2.53,-0.8 2.53,-2.55 V 8.26 H 8.1 V 14 c 0,0.86 -0.35,1.08 -0.9,1.08 -0.58,0 -0.82,-0.4 -1.09,-0.87 l -1.38,0.83 m 5.98,-0.18 c 0.5,0.98 1.51,1.73 3.09,1.73 1.6,0 2.8,-0.83 2.8,-2.36 0,-1.41 -0.81,-2.04 -2.25,-2.66 l -0.42,-0.18 c -0.73,-0.31 -1.04,-0.52 -1.04,-1.02 0,-0.41 0.31,-0.73 0.81,-0.73 0.48,0 0.8,0.21 1.09,0.73 L 16.1,9.5 C 15.55,8.54 14.77,8.17 13.7,8.17 c -1.51,0 -2.48,0.96 -2.48,2.23 0,1.38 0.81,2.03 2.03,2.55 l 0.42,0.18 c 0.78,0.34 1.24,0.55 1.24,1.13 0,0.48 -0.45,0.83 -1.15,0.83 -0.83,0 -1.31,-0.43 -1.67,-1.03 z" />
</svg>
