<?xml version="1.0" encoding="UTF-8" standalone="no"?>
<svg
   xmlns:dc="http://purl.org/dc/elements/1.1/"
   xmlns:cc="http://creativecommons.org/ns#"
   xmlns:rdf="http://www.w3.org/1999/02/22-rdf-syntax-ns#"
   xmlns:svg="http://www.w3.org/2000/svg"
   xmlns="http://www.w3.org/2000/svg"
   id="svg102"
   version="1.1"
   viewBox="0 0 19.732294 19.754004"
   height="19.754004mm"
   width="19.732294mm">
  <defs
     id="defs96" />
  <metadata
     id="metadata99">
    <rdf:RDF>
      <cc:Work
         rdf:about="">
        <dc:format>image/svg+xml</dc:format>
        <dc:type
           rdf:resource="http://purl.org/dc/dcmitype/StillImage" />
        <dc:title></dc:title>
      </cc:Work>
    </rdf:RDF>
  </metadata>
  <g
     transform="translate(-63.461233,-47.486092)"
     id="layer1">
    <path
       id="path58"
       d="m 77.761875,54.341243 -0.0072,-0.0031 c -0.0041,-0.0015 -0.0083,-0.0031 -0.01185,-0.0067 -0.0059,-0.0064 -0.01029,-0.01397 -0.01281,-0.02228 -0.0025,-0.0083 -0.003,-0.01707 -0.0016,-0.02564 l 0.39825,-2.434776 1.867562,1.868064 -1.942253,0.826374 c -0.0054,0.0022 -0.01119,0.0032 -0.01701,0.0031 h -0.0077 c -0.0026,-0.0015 -0.0052,-0.0036 -0.01029,-0.0088 -0.07235,-0.08049 -0.158791,-0.147005 -0.255099,-0.196296 z m 2.708883,-0.148379 1.996864,1.99689 c 0.414734,0.415237 0.622353,0.622353 0.698076,0.862436 0.01135,0.03553 0.02061,0.07109 0.02783,0.107659 L 78.421322,55.13875 c -0.0026,-0.0011 -0.0051,-0.0021 -0.0077,-0.0031 -0.01908,-0.0077 -0.04122,-0.01648 -0.04122,-0.03606 0,-0.01958 0.02267,-0.02887 0.04172,-0.03659 l 0.0062,-0.0026 z m 2.641362,3.607885 c -0.103028,0.193701 -0.303953,0.394626 -0.643969,0.735171 l -2.251393,2.250863 -2.911845,-0.606372 -0.01545,-0.0031 c -0.02577,-0.0041 -0.05307,-0.0088 -0.05307,-0.03193 -0.01106,-0.120121 -0.04673,-0.23667 -0.104775,-0.342424 -0.05805,-0.105727 -0.137266,-0.198384 -0.232675,-0.272203 -0.01185,-0.01185 -0.0088,-0.0304 -0.0052,-0.04739 0,-0.0026 0,-0.0052 0.001,-0.0072 l 0.547661,-3.362139 0.0021,-0.01132 c 0.0031,-0.02574 0.0077,-0.05564 0.0309,-0.05564 0.117369,-0.0146 0.230637,-0.05241 0.333243,-0.111231 0.102605,-0.05882 0.192484,-0.137477 0.264371,-0.231378 0.0046,-0.0051 0.0077,-0.0108 0.01392,-0.01389 0.01648,-0.0077 0.03606,0 0.05305,0.0072 l 4.971601,2.103014 z m -3.413125,3.503797 -3.702156,3.702156 0.633678,-3.894825 0.001,-0.0052 c 5.3e-4,-0.0052 0.0016,-0.01029 0.0031,-0.01492 0.0052,-0.01238 0.01855,-0.01754 0.03143,-0.02268 l 0.0062,-0.0026 c 0.138748,-0.05919 0.261488,-0.150468 0.358061,-0.266329 0.01238,-0.01445 0.02731,-0.02834 0.04638,-0.03093 0.0049,-7.94e-4 0.01,-7.94e-4 0.01492,0 l 2.60686,0.535807 z m -4.485772,4.485773 -0.417301,0.4173 -4.613513,-6.667579 c -0.0017,-0.0025 -0.0034,-0.0048 -0.0052,-0.0072 -0.0072,-0.0098 -0.01495,-0.01958 -0.01339,-0.0309 5.03e-4,-0.0083 0.0057,-0.01545 0.01132,-0.02164 l 0.0052,-0.0067 c 0.01392,-0.02061 0.02574,-0.04122 0.03863,-0.06337 l 0.01032,-0.01804 0.0015,-0.0015 c 0.0072,-0.01236 0.01392,-0.02421 0.02627,-0.03093 0.01082,-0.0051 0.02577,-0.0031 0.03762,-5.03e-4 l 5.111194,1.054074 c 0.01429,0.0022 0.02778,0.0081 0.03916,0.01701 0.0067,0.0067 0.0082,0.01392 0.0098,0.02215 0.03564,0.134885 0.101997,0.259715 0.19386,0.364728 0.09189,0.105013 0.206772,0.187352 0.335756,0.240612 0.01442,0.0072 0.0082,0.0232 0.0015,0.04019 -0.0033,0.0075 -0.0059,0.01521 -0.0077,0.02318 -0.0644,0.391557 -0.616691,3.759862 -0.765069,4.669182 z m -0.871696,0.871193 c -0.307552,0.304456 -0.488897,0.46572 -0.693949,0.530622 -0.202168,0.06395 -0.419153,0.06395 -0.621321,0 -0.240083,-0.07623 -0.447701,-0.283342 -0.862436,-0.698579 l -4.633092,-4.633119 1.210178,-1.876822 c 0.0057,-0.0093 0.01132,-0.01752 0.02061,-0.02421 0.01286,-0.0093 0.03141,-0.0052 0.04688,0 0.277759,0.08379 0.575997,0.06869 0.843862,-0.04278 0.01392,-0.0051 0.02783,-0.0088 0.03866,0.001 0.0054,0.0049 0.01024,0.01048 0.01442,0.01648 l 4.636187,6.727878 z m -7.257468,-5.247746 -1.062857,-1.062831 2.098886,-0.895403 c 0.0054,-0.0023 0.01117,-0.0036 0.01701,-0.0036 0.01752,0 0.02781,0.01752 0.03709,0.0335 0.02109,0.03244 0.04344,0.06406 0.06697,0.09477 l 0.0067,0.0083 c 0.0062,0.0088 0.0021,0.01751 -0.0041,0.02577 l -1.15919,1.799494 z M 65.550852,59.880559 64.2062,58.53592 c -0.228746,-0.228732 -0.394637,-0.394626 -0.51004,-0.537342 l 4.088542,0.848016 c 0.0051,9.52e-4 0.01029,0.0018 0.01545,0.0026 0.02527,0.0041 0.05307,0.0088 0.05307,0.03246 0,0.02574 -0.0304,0.0376 -0.05615,0.04739 l -0.01185,0.0052 z m -2.089619,-2.573364 c 0.0047,-0.08662 0.02024,-0.172296 0.04637,-0.255005 0.07625,-0.240083 0.283353,-0.447199 0.698598,-0.862436 l 1.720731,-1.720744 c 0.792268,1.149853 1.586706,2.298197 2.38326,3.445086 0.01392,0.01855 0.02937,0.03916 0.01341,0.05461 -0.07522,0.08295 -0.150442,0.17362 -0.203517,0.272018 -0.0057,0.01265 -0.0146,0.02363 -0.02574,0.03194 -0.0067,0.0041 -0.01392,0.0026 -0.02164,10e-4 h -0.001 l -4.610436,-0.966971 z m 2.926284,-3.298772 2.313702,-2.313702 c 0.217435,0.0953 1.00875,0.429657 1.716617,0.728478 0.535807,0.226668 1.024202,0.432752 1.17774,0.499718 0.01545,0.0062 0.02937,0.01238 0.03606,0.02783 0.0041,0.0093 0.0021,0.02111 0,0.0309 -0.03662,0.167005 -0.03119,0.340519 0.01585,0.504905 0.04704,0.164385 0.13417,0.31451 0.253603,0.43688 0.01545,0.01545 0,0.0376 -0.01341,0.05665 l -0.0072,0.01082 -2.349289,3.638787 c -0.0062,0.01032 -0.01183,0.01908 -0.02215,0.02577 -0.01236,0.0077 -0.02987,0.0041 -0.04429,5.03e-4 -0.09139,-0.02392 -0.185314,-0.03673 -0.27977,-0.0381 -0.08448,0 -0.176186,0.01545 -0.268923,0.03244 h -5.02e-4 c -0.01032,0.0016 -0.01958,0.0036 -0.02783,-0.0026 -0.0091,-0.0074 -0.01693,-0.01633 -0.02318,-0.02627 z m 2.780983,-2.780982 2.995321,-2.995316 c 0.414735,-0.41473 0.622353,-0.622351 0.862436,-0.698085 0.202168,-0.06393 0.419153,-0.06393 0.621321,0 0.240082,0.07573 0.447701,0.283355 0.862409,0.698085 l 0.649155,0.649139 -2.130319,3.299285 c -0.0053,0.0096 -0.01246,0.01802 -0.02111,0.02471 -0.01289,0.0088 -0.0309,0.0052 -0.04638,0 -0.167957,-0.05096 -0.34581,-0.06025 -0.51816,-0.02704 -0.172349,0.03323 -0.33401,0.107924 -0.470984,0.217673 -0.01392,0.01442 -0.03453,0.0062 -0.05204,-0.0016 -0.278209,-0.121047 -2.441998,-1.035527 -2.75164,-1.166892 z m 6.442974,-1.89384 1.966992,1.966997 -0.473975,2.935552 v 0.0077 c -4.23e-4,0.0067 -0.0018,0.01328 -0.0041,0.01958 -0.0051,0.01029 -0.01545,0.01236 -0.02574,0.01545 -0.101336,0.03069 -0.196797,0.07824 -0.282337,0.140653 -0.0037,0.0026 -0.0071,0.0056 -0.01029,0.0088 -0.0057,0.0062 -0.01135,0.01185 -0.02061,0.01288 -0.0075,2.38e-4 -0.01508,-10e-4 -0.02215,-0.0036 l -2.997385,-1.273546 -0.0057,-0.0026 c -0.01908,-0.0077 -0.04172,-0.01701 -0.04172,-0.03659 -0.01762,-0.167031 -0.07218,-0.328057 -0.159729,-0.471382 -0.01442,-0.02371 -0.03037,-0.04844 -0.01802,-0.07265 z m -2.02573,4.433734 2.809849,1.190069 c 0.01545,0.0072 0.03246,0.01392 0.03916,0.0299 0.0027,0.0096 0.0027,0.01976 0,0.02937 -0.0083,0.0412 -0.01545,0.08808 -0.01545,0.135493 v 0.07882 c 0,0.01958 -0.02011,0.02781 -0.03866,0.03553 l -0.0057,0.0021 c -0.44507,0.190107 -6.249207,2.665098 -6.257965,2.665098 -0.0088,0 -0.01805,0 -0.0268,-0.0088 -0.01545,-0.01545 0,-0.03709 0.01392,-0.05667 0.0025,-0.0034 0.0049,-0.0068 0.0072,-0.01032 l 2.309072,-3.57542 0.0041,-0.0062 c 0.01339,-0.02164 0.02884,-0.04585 0.05358,-0.04585 l 0.02318,0.0036 c 0.05255,0.0072 0.09893,0.01392 0.145811,0.01392 0.350309,0 0.6749,-0.170524 0.870665,-0.462121 0.0047,-0.0078 0.01058,-0.01476 0.01751,-0.02061 0.01392,-0.01032 0.03453,-0.0052 0.05048,0.0021 z m -3.217862,4.732019 6.326531,-2.698061 c 0,0 0.0093,0 0.01802,0.0088 0.03453,0.03453 0.0639,0.05771 0.09223,0.07935 l 0.01389,0.0088 c 0.01289,0.0072 0.02577,0.01545 0.0268,0.02884 0,0.0052 0,0.0083 -0.001,0.01288 l -0.541972,3.329145 -0.0021,0.01342 c -0.0036,0.02574 -0.0072,0.05511 -0.03143,0.05511 -0.144489,0.0098 -0.284428,0.05458 -0.407697,0.130625 -0.123243,0.07604 -0.226113,0.181002 -0.299667,0.305753 l -0.0026,0.0041 c -0.0072,0.01183 -0.01392,0.02318 -0.02577,0.02934 -0.01082,0.0052 -0.02471,0.0031 -0.03606,5.3e-4 l -5.045222,-1.040665 c -0.0051,-0.001 -0.07829,-0.267388 -0.08395,-0.267891 z"
       style="fill:#000000;stroke-width:0.26458332" />
  </g>
</svg>
