<?xml version="1.0" encoding="UTF-8" standalone="no"?>
<svg
   xmlns:dc="http://purl.org/dc/elements/1.1/"
   xmlns:cc="http://creativecommons.org/ns#"
   xmlns:rdf="http://www.w3.org/1999/02/22-rdf-syntax-ns#"
   xmlns:svg="http://www.w3.org/2000/svg"
   xmlns="http://www.w3.org/2000/svg"
   id="svg34"
   viewBox="0 0 20 20"
   height="20pt"
   width="20pt"
   version="1.1">
  <metadata
     id="metadata40">
    <rdf:RDF>
      <cc:Work
         rdf:about="">
        <dc:format>image/svg+xml</dc:format>
        <dc:type
           rdf:resource="http://purl.org/dc/dcmitype/StillImage" />
        <dc:title></dc:title>
      </cc:Work>
    </rdf:RDF>
  </metadata>
  <defs
     id="defs38" />
  <path
     id="path32"
     d="M 10,0 A 10,10 0 0 1 20,10 10,10 0 0 1 10,20 10,10 0 0 1 0,10 10,10 0 0 1 10,0 M 8,13.33 c 0.16,0.54 0.14,1.04 0,1.5 C 8,14.88 7.96,14.93 7.94,15 7.92,15 7.9,15.07 7.87,15.12 7.76,15.36 7.6,15.59 7.41,15.79 6.83,16.43 6,16.67 5.67,16.47 5.29,16.25 5.5,15.35 6.16,14.64 6.88,13.88 7.92,13.38 7.92,13.38 v 0 L 8,13.33 M 16.27,4.28 C 15.82,2.5 12.87,1.92 10.09,2.91 8.43,3.5 6.63,4.42 5.34,5.63 3.81,7.07 3.56,8.32 3.66,8.84 4,10.68 6.54,11.89 7.58,12.78 v 0.01 c -0.3,0.15 -2.54,1.28 -3.08,2.44 -0.54,1.22 0.1,2.1 0.5,2.22 1.34,0.36 2.69,-0.29 3.41,-1.38 0.7,-1.04 0.65,-2.39 0.34,-3.07 0.42,-0.1 0.91,-0.15 1.53,-0.08 1.76,0.21 2.1,1.3 2.03,1.76 -0.06,0.46 -0.43,0.71 -0.55,0.79 -0.12,0.07 -0.16,0.1 -0.15,0.16 0.01,0.08 0.07,0.08 0.17,0.06 0.15,-0.03 0.93,-0.37 0.96,-1.22 0.04,-1.08 -0.99,-2.28 -2.81,-2.25 -0.75,0.02 -1.22,0.09 -1.56,0.22 L 8.29,12.35 C 7.16,11.15 5.08,10.3 5.17,8.68 5.2,8.09 5.4,6.55 9.17,4.67 12.25,3.13 14.72,3.55 15.15,4.5 15.76,5.83 13.83,8.32 10.63,8.68 9.41,8.82 8.76,8.34 8.6,8.17 8.43,8 8.41,7.97 8.35,8 8.24,8.07 8.31,8.23 8.35,8.33 8.44,8.58 8.84,9 9.5,9.24 c 0.59,0.19 2.03,0.3 3.76,-0.37 1.94,-0.75 3.46,-2.84 3.01,-4.59 z" />
</svg>
